<?xml version="1.0" encoding="UTF-8"?>
<svg xmlns="http://www.w3.org/2000/svg" version="1.1" viewBox="0 0 16 16">
  <defs>
    <style>
      .cls-1 {
        fill: #f4e800;
      }
    </style>
  </defs>
  <!-- Generator: Adobe Illustrator 28.6.0, SVG Export Plug-In . SVG Version: 1.2.0 Build 709)  -->
  <g>
    <g id="Camada_1">
      <path class="cls-1" d="M5.5,13v1.2c0,.1.1.2.2.2h1c.1,0,.2-.1.2-.2v-1.2h.5v1.2c0,.1.1.2.2.2h1c.1,0,.2-.1.2-.2v-1.2h0c2,0,3.4-1,3.4-2.8s-1-2.3-2.2-2.4h0c1-.3,1.7-1.1,1.7-2.3s-1.1-2.5-2.9-2.5h0v-1.2c0-.1-.1-.2-.2-.2h-1c-.1,0-.2.1-.2.2v1.2h-.6v-1.2c0-.1-.1-.2-.2-.2h-.9c-.1,0-.2.1-.2.2v1.2h-2c-.1,0-.2.1-.2.3v1c0,.1.1.2.2.2h.8c.4,0,.7.3.7.7v5.5c0,.4-.3.8-.8.8h-.7c-.1,0-.2.1-.2.3v1c0,.1.1.2.2.2h2ZM6.9,4.5h1.7c.9,0,1.4.5,1.4,1.3s-.6,1.4-1.9,1.4h-1.3v-2.7ZM6.9,8.5h1.8c1.1,0,1.8.6,1.8,1.5s-.6,1.4-2.2,1.4h-1.4v-3Z"/>
    </g>
  </g>
</svg>