<?xml version="1.0" encoding="UTF-8"?>
<svg xmlns="http://www.w3.org/2000/svg" version="1.1" viewBox="0 0 16 16">
  <defs>
    <style>
      .cls-1 {
        fill: #8e8e8e;
      }
    </style>
  </defs>
  <!-- Generator: Adobe Illustrator 28.6.0, SVG Export Plug-In . SVG Version: 1.2.0 Build 709)  -->
  <g>
    <g id="Camada_1">
      <path class="cls-1" d="M8,3c.8,0,1.5-.7,1.5-1.5S8.8,0,8,0s-1.5.7-1.5,1.5.7,1.5,1.5,1.5M6,6.8v8.5c0,.4.3.8.8.8s.8-.3.8-.8v-4.8c0-.3.2-.5.5-.5s.5.2.5.5v4.8c0,.4.3.8.8.8s.8-.3.8-.8V6.8c0-.1.1-.2.2-.2s.2.1.2.2v2.5c0,.4.3.8.8.8s.8-.3.8-.8v-2.8c0-1.7-1.3-3-3-3h-2c-1.7,0-3,1.3-3,3v2.8c0,.4.3.8.8.8s.8-.3.8-.8v-2.5c0-.1.1-.2.2-.2s.2.1.2.2"/>
    </g>
  </g>
</svg>