<?xml version="1.0" encoding="UTF-8"?>
<svg xmlns="http://www.w3.org/2000/svg" version="1.1" viewBox="0 0 16 16">
  <defs>
    <style>
      .cls-1 {
        fill: #3b822c;
      }
    </style>
  </defs>
  <!-- Generator: Adobe Illustrator 28.6.0, SVG Export Plug-In . SVG Version: 1.2.0 Build 709)  -->
  <g>
    <g id="Camada_1">
      <path class="cls-1" d="M9.5,0h-5.5C2.9,0,2,.9,2,2v12c0,1.1.9,2,2,2h8c1.1,0,2-.9,2-2V4.5L9.5,0ZM9.5,1v2c0,.8.7,1.5,1.5,1.5h2v9.5c0,.6-.4,1-1,1H4c-.6,0-1-.4-1-1V2c0-.6.4-1,1-1h5.5Z"/>
      <g>
        <path class="cls-1" d="M5.2,7.3h.8v2.8h-.6l-.9-1.3v1.3h-.8v-2.8h.6l.9,1.3v-1.3Z"/>
        <path class="cls-1" d="M8.1,8.1h-.9v.4h.9v.8h-.9v.9h-.8v-2.8h1.7v.8Z"/>
        <path class="cls-1" d="M8.5,9.3v-.7h1.6v.7h-1.6Z"/>
        <path class="cls-1" d="M11.1,9.4c0,.1.2.2.4.2s.2,0,.3-.1l.5.4c-.2.2-.5.3-.8.3s-.6,0-.8-.3-.3-.4-.3-.8.1-.6.3-.8.5-.3.8-.3.6,0,.8.3.3.4.3.8,0,.2,0,.3h-1.3ZM11.1,8.9h.7c0-.2-.2-.2-.3-.2s-.3,0-.3.2Z"/>
      </g>
    </g>
  </g>
</svg>