<?xml version="1.0" encoding="UTF-8"?>
<svg xmlns="http://www.w3.org/2000/svg" version="1.1" viewBox="0 0 16 16">
  <defs>
    <style>
      .cls-1 {
        fill: #51cc23;
      }
    </style>
  </defs>
  <!-- Generator: Adobe Illustrator 28.6.0, SVG Export Plug-In . SVG Version: 1.2.0 Build 709)  -->
  <g>
    <g id="Camada_1">
      <g id="Camada_1-2" data-name="Camada_1">
        <path class="cls-1" d="M8,3c.8,0,1.5-.7,1.5-1.5S8.8,0,8,0s-1.5.7-1.5,1.5.7,1.5,1.5,1.5"/>
        <path class="cls-1" d="M5.9,6.7l-.8,8.5c0,.4.2.8.7.9.4,0,.8-.2.9-.7h0l.8-4.9c0-.3.4-.5.7-.5s.4.2.5.5l.8,4.9c0,.4.4.7.9.7s.7-.4.7-.9l-.8-8.5c0-.4.1-.9.4-1.2l2.5-3.2c.3-.4.2-.9-.2-1.1-.3-.2-.8-.2-1.1.1l-2.1,2.6c0,.1-.2.2-.3.2-.2,0-.7.2-1.3.2s-1.1,0-1.3-.2c0,0-.2,0-.3-.2l-2.1-2.6c-.3-.3-.8-.4-1.1-.1-.3.3-.4.8,0,1.1l2.5,3.2c.3.3.5.8.4,1.2h-.3Z"/>
      </g>
    </g>
  </g>
</svg>